<svg width="40" height="40" viewBox="0 0 40 40" fill="none" xmlns="http://www.w3.org/2000/svg">
<path fill-rule="evenodd" clip-rule="evenodd" d="M21.3451 19.8765C22.0738 20.6038 22.0837 21.7799 21.3678 22.5199L21.3451 22.5455C20.8053 23.0853 19.9943 23.2472 19.2897 22.9546C18.5838 22.662 18.1235 21.9745 18.1235 21.2117C18.1235 20.4475 18.5838 19.76 19.2897 19.4674C19.9943 19.1762 20.8054 19.3381 21.3451 19.8765ZM21.1122 21.2089C21.1136 20.9177 20.9971 20.6364 20.7911 20.4305C20.4758 20.1151 20.0013 20.0214 19.5908 20.1918C19.1789 20.3623 18.9104 20.7629 18.9104 21.2089C18.9104 21.6535 19.1789 22.0555 19.5908 22.226C20.0013 22.3964 20.4758 22.3027 20.7911 21.9873L20.8096 21.9703H20.8082C21.0042 21.7657 21.1136 21.493 21.1136 21.2089L21.1122 21.2089ZM36.3634 20.9617H32.3263C32.3718 23.1237 31.8462 25.257 30.8036 27.1508L32.4542 28.1423C32.4897 28.1522 32.5224 28.165 32.5536 28.1835C32.5863 28.2034 32.6147 28.2261 32.6417 28.2545L34.2638 29.229C35.68 26.7076 36.4044 23.8555 36.3633 20.962L36.3634 20.9617ZM31.5325 20.6109V20.6123C31.5311 20.5981 31.5297 20.5839 31.5297 20.5697C31.372 17.733 30.1731 15.054 28.1632 13.0468C26.1533 11.0397 23.473 9.84364 20.6348 9.69164H20.6277C20.4232 9.68028 20.2172 9.6746 20.0113 9.6746C17.284 9.67602 14.6447 10.6448 12.5611 12.4061C10.4787 14.1689 9.08664 16.6105 8.63199 19.301C8.17733 21.9916 8.69023 24.7556 10.0794 27.1036C10.1334 27.1931 10.1476 27.301 10.1221 27.4019C10.0965 27.5027 10.0311 27.588 9.94166 27.6419L8.21155 28.6604V28.659C10.7684 32.7073 15.2199 35.1619 20.0072 35.1633C24.7941 35.1633 29.2472 32.7102 31.8054 28.6648L30.0724 27.625C29.8878 27.5142 29.8267 27.2742 29.9361 27.0895C31.0966 25.1349 31.6505 22.8808 31.5312 20.6124L31.5325 20.6109ZM7.69179 20.9617H7.69037C7.64207 23.1265 8.16622 25.2672 9.21026 27.1635L7.52702 28.155C7.50713 28.1636 7.48725 28.1721 7.46878 28.1834C7.45031 28.1948 7.43327 28.2062 7.41622 28.2204L5.72873 29.2147H5.73015C4.31539 26.6976 3.59379 23.8496 3.63783 20.962L7.69179 20.9617ZM9.18611 8.92463C9.26992 8.85219 9.35515 8.77691 9.44038 8.70446V8.70588C12.3949 6.20447 16.1393 4.83388 20.0098 4.83643L20.257 4.83927V8.89054C20.1746 8.89054 20.0922 8.8877 20.0098 8.8877C17.0979 8.88628 14.2796 9.91894 12.0567 11.7996L9.18459 8.92748L9.18611 8.92463ZM11.4731 12.3266C9.56397 14.1605 8.29691 16.5597 7.85942 19.1703C7.8026 19.5041 7.75999 19.8393 7.73158 20.1759H3.66904C3.92614 16.1149 5.68609 12.2952 8.60649 9.45994L11.4731 12.3266ZM31.388 9.4346C33.9008 11.8636 35.5669 15.0353 36.1392 18.483C36.2316 19.0441 36.2969 19.6094 36.331 20.1761H32.287C32.2586 19.8366 32.2146 19.4971 32.1592 19.1619C31.7174 16.5326 30.4333 14.1179 28.5003 12.2812L31.3866 9.4346H31.388ZM27.9149 11.7599C25.9703 10.1306 23.5713 9.1434 21.044 8.93176V4.86922C24.5525 5.08797 27.8979 6.43314 30.5822 8.70594C30.6589 8.77129 30.7356 8.83663 30.8109 8.90339L27.9149 11.7599ZM24.0386 12.8962C21.2857 11.5638 18.0513 11.6803 15.4022 13.2073C12.7516 14.7329 11.0288 17.4728 10.8 20.5226C10.7887 20.6277 10.8213 20.7342 10.8895 20.8152C10.9577 20.8962 11.0557 20.9473 11.1623 20.9558C11.2674 20.9629 11.3725 20.9274 11.452 20.8578C11.5316 20.7868 11.5785 20.6874 11.5827 20.5808C11.7901 17.7882 13.3668 15.2812 15.7929 13.8834C18.219 12.4856 21.1805 12.3805 23.6991 13.6021C23.7928 13.6504 23.9036 13.6589 24.0031 13.6248C24.1039 13.5922 24.1863 13.5197 24.2317 13.4246C24.2772 13.3294 24.2829 13.22 24.2474 13.1206C24.2104 13.0212 24.1366 12.9402 24.04 12.8962L24.0386 12.8962ZM26.898 14.5567V14.5582C26.8454 14.3025 26.7105 14.071 26.5159 13.8962C26.3184 13.7215 26.0684 13.6164 25.8042 13.5994C25.5457 13.5823 25.2886 13.6434 25.0656 13.7727L18.2914 17.4203C17.4604 17.7896 16.7815 18.4316 16.3639 19.2385C15.9363 20.0637 15.7928 21.0069 15.9562 21.9217C16.2772 23.7882 17.8326 25.1916 19.7216 25.3195C21.6108 25.4473 23.3424 24.2655 23.9107 22.4601L26.8241 15.2866V15.2852C26.9221 15.0565 26.9477 14.8023 26.8965 14.5579L26.898 14.5567ZM26.1096 14.9715C26.1778 14.7996 26.1323 14.6036 25.996 14.48C25.9278 14.4218 25.8426 14.3877 25.7531 14.3848C25.648 14.3777 25.5443 14.4033 25.4534 14.4573L18.6552 18.1162C18.641 18.1233 18.6268 18.1304 18.6126 18.1361C17.9435 18.433 17.3966 18.95 17.0628 19.5991C16.7148 20.2724 16.5984 21.0409 16.7305 21.7852C16.989 23.2994 18.2518 24.4386 19.7844 24.5395C21.3157 24.6389 22.7162 23.6744 23.1694 22.2071L23.1807 22.1758L26.0927 15.0053L26.1096 14.9715Z" fill="url(#paint0_linear_88_601)"/>
<defs>
<linearGradient id="paint0_linear_88_601" x1="20.0004" y1="4.83643" x2="20.0004" y2="35.1633" gradientUnits="userSpaceOnUse">
<stop stop-color="#FFDE25"/>
<stop offset="1" stop-color="#E6B71D"/>
</linearGradient>
</defs>
</svg>
