<svg width="130" height="24" viewBox="0 0 130 24" fill="none" xmlns="http://www.w3.org/2000/svg">
<g clip-path="url(#clip0_2005_6951)">
<path d="M72.8051 17.7143H75.5772V7.16114H72.8051V17.7143ZM72.8051 5.51545H75.5772V3.00574H72.8051V5.51545Z" fill="url(#paint0_linear_2005_6951)"/>
<path d="M77.3636 21.1703H80.1358V16.5212H80.1762C80.7671 17.4263 81.7255 18.0229 83.1927 18.0229C85.8834 18.0229 87.718 15.8629 87.718 12.4481C87.718 9.15659 85.9446 6.87317 83.1725 6.87317C81.7457 6.87317 80.7671 7.55207 80.0948 8.47775H80.0335V7.16117H77.3636V21.1703ZM82.6017 15.6983C80.9508 15.6983 80.0745 14.4435 80.0745 12.5303C80.0745 10.6377 80.7671 9.13607 82.5001 9.13607C84.2122 9.13607 84.9048 10.5349 84.9048 12.5303C84.9048 14.5257 84.0083 15.6983 82.6017 15.6983Z" fill="url(#paint1_linear_2005_6951)"/>
<path d="M93.2473 18.0229C95.8566 18.0229 97.6502 16.7475 97.6502 14.6286C97.6502 12.1601 95.7139 11.6663 93.9607 11.2961C92.4727 10.9875 91.0869 10.9052 91.0869 10.0001C91.0869 9.23891 91.8003 8.82749 92.8805 8.82749C94.063 8.82749 94.7764 9.23891 94.8983 10.3703H97.4052C97.2019 8.25149 95.6729 6.87317 92.9216 6.87317C90.5364 6.87317 88.6614 7.96349 88.6614 10.2469C88.6614 12.5509 90.496 13.0652 92.3711 13.4355C93.7978 13.7235 95.1224 13.8263 95.1224 14.8343C95.1224 15.5749 94.4298 16.0481 93.2069 16.0481C91.9632 16.0481 91.1072 15.5132 90.9241 14.2995H88.3558C88.5187 16.5417 90.2107 18.0229 93.2473 18.0229Z" fill="url(#paint2_linear_2005_6951)"/>
<path d="M108.175 17.7143V7.16113H105.402V13.2503C105.402 14.6491 104.608 15.6366 103.303 15.6366C102.121 15.6366 101.571 14.9577 101.571 13.7235V7.16113H98.819V14.1966C98.819 16.5006 100.123 18.0023 102.447 18.0023C103.915 18.0023 104.73 17.4469 105.443 16.48H105.505V17.7143H108.175Z" fill="url(#paint3_linear_2005_6951)"/>
<path d="M109.968 17.7143H112.74V11.5841C112.74 10.1852 113.494 9.28007 114.615 9.28007C115.634 9.28007 116.225 9.89717 116.225 11.0903V17.7143H118.997V11.5841C118.997 10.1852 119.711 9.28007 120.872 9.28007C121.892 9.28007 122.483 9.89717 122.483 11.0903V17.7143H125.255V10.6172C125.255 8.31317 124.011 6.87317 121.81 6.87317C120.485 6.87317 119.384 7.57259 118.671 8.72459H118.631C118.121 7.61375 117.061 6.87317 115.736 6.87317C114.289 6.87317 113.27 7.61375 112.699 8.58059H112.638V7.16117H109.968V17.7143Z" fill="url(#paint4_linear_2005_6951)"/>
<path d="M0.555542 17.7143H3.32759V3.00574H0.555542V17.7143Z" fill="url(#paint5_linear_2005_6951)"/>
<path d="M10.1057 18.0229C13.3465 18.0229 15.5682 15.5955 15.5682 12.4481C15.5682 9.30059 13.3465 6.87317 10.1057 6.87317C6.86477 6.87317 4.64307 9.30059 4.64307 12.4481C4.64307 15.5955 6.86477 18.0229 10.1057 18.0229ZM10.1057 15.8835C8.39351 15.8835 7.45587 14.5052 7.45587 12.4481C7.45587 10.3909 8.39351 8.99207 10.1057 8.99207C11.7974 8.99207 12.7554 10.3909 12.7554 12.4481C12.7554 14.5052 11.7974 15.8835 10.1057 15.8835Z" fill="url(#paint6_linear_2005_6951)"/>
<path d="M21.4632 21.3143C23.0123 21.3143 24.3576 20.9441 25.234 20.1212C26.0086 19.4012 26.4774 18.3932 26.4774 16.9121V7.16117H23.8073V8.27207H23.7665C23.1346 7.38749 22.1766 6.87317 20.8721 6.87317C18.2224 6.87317 16.3472 8.88917 16.3472 12.0366C16.3472 15.2252 18.63 17.0766 20.9537 17.0766C22.2785 17.0766 23.0735 16.5417 23.6849 15.8423H23.7461V16.9943C23.7461 18.4343 22.9919 19.1955 21.4224 19.1955C20.1383 19.1955 19.5472 18.6812 19.323 18.0229H16.5714C16.8567 20.0801 18.6096 21.3143 21.4632 21.3143ZM21.4224 14.8343C19.9956 14.8343 19.0581 13.7852 19.0581 11.9955C19.0581 10.2263 19.9956 9.11549 21.402 9.11549C23.0735 9.11549 23.8888 10.4321 23.8888 11.9749C23.8888 13.5383 23.1754 14.8343 21.4224 14.8343Z" fill="url(#paint7_linear_2005_6951)"/>
<path d="M33.2153 18.0229C36.4561 18.0229 38.6778 15.5955 38.6778 12.4481C38.6778 9.30059 36.4561 6.87317 33.2153 6.87317C29.9744 6.87317 27.7527 9.30059 27.7527 12.4481C27.7527 15.5955 29.9744 18.0229 33.2153 18.0229ZM33.2153 15.8835C31.5031 15.8835 30.5655 14.5052 30.5655 12.4481C30.5655 10.3909 31.5031 8.99207 33.2153 8.99207C34.907 8.99207 35.8651 10.3909 35.8651 12.4481C35.8651 14.5052 34.907 15.8835 33.2153 15.8835Z" fill="url(#paint8_linear_2005_6951)"/>
<path d="M126.262 5.42855C126.262 4.95516 126.643 4.57141 127.112 4.57141H128.81C129.279 4.57141 129.66 4.95516 129.66 5.42855C129.66 5.90194 129.279 6.2857 128.81 6.2857H127.112C126.643 6.2857 126.262 5.90194 126.262 5.42855Z" fill="url(#paint9_linear_2005_6951)"/>
<path fill-rule="evenodd" clip-rule="evenodd" d="M55.489 0C62.0554 0 67.3791 5.37259 67.3791 12C67.3791 18.6274 62.0554 24 55.489 24C48.9224 24 43.5991 18.6274 43.5991 12C43.5991 5.37259 48.9224 0 55.489 0ZM55.0593 0.897954C53.7028 1.09061 52.4112 2.19065 51.4086 4.03044C51.1178 4.5641 50.8554 5.15368 50.6267 5.79026C51.99 5.4445 53.4876 5.24065 55.0593 5.20912V0.897954ZM49.6218 6.07848C49.9062 5.17775 50.254 4.34904 50.6555 3.61239C51.1525 2.70035 51.7423 1.91277 52.4069 1.30786C48.793 2.36714 45.9445 5.24207 44.8949 8.88942C45.4943 8.21868 46.2746 7.62336 47.1783 7.12176C47.9083 6.71658 48.7293 6.36546 49.6218 6.07848ZM49.3362 7.09266C48.9936 8.46858 48.7917 9.98004 48.7604 11.5663H44.4888C44.6797 10.1972 45.7696 8.89368 47.5926 7.88184C48.1213 7.58832 48.7055 7.32348 49.3362 7.09266ZM49.6201 11.5663C49.6556 9.8352 49.9026 8.21004 50.3111 6.77412C51.7338 6.3618 53.3441 6.11256 55.0593 6.07674V7.95048C54.4194 9.60372 53.1144 10.9207 51.4762 11.5663H49.6201ZM48.7604 12.4337H44.4888C44.6797 13.8028 45.7696 15.1063 47.5926 16.1182C48.1213 16.4117 48.7055 16.6765 49.3362 16.9073C48.9936 15.5314 48.7917 14.02 48.7604 12.4337ZM50.3111 17.2259C49.9026 15.79 49.6556 14.1648 49.6201 12.4337H51.4762C53.1144 13.0793 54.4194 14.3963 55.0593 16.0495V17.9233C53.3441 17.8874 51.7338 17.6382 50.3111 17.2259ZM49.6218 17.9215C48.7293 17.6345 47.9083 17.2834 47.1783 16.8782C46.2746 16.3766 45.4943 15.7813 44.8949 15.1106C45.9445 18.7579 48.793 21.6329 52.4069 22.6921C51.7423 22.0872 51.1525 21.2996 50.6555 20.3876C50.254 19.651 49.9062 18.8222 49.6218 17.9215ZM55.0593 23.102C53.7028 22.9094 52.4112 21.8093 51.4086 19.9696C51.1178 19.4359 50.8554 18.8463 50.6267 18.2098C51.99 18.5555 53.4876 18.7594 55.0593 18.7909V23.102ZM58.5711 22.6921C59.2357 22.0872 59.8255 21.2996 60.3225 20.3876C60.7237 19.651 61.0721 18.8222 61.3563 17.9215C62.2486 17.6345 63.0696 17.2834 63.7997 16.8782C64.7033 16.3766 65.4839 15.7813 66.0831 15.1106C65.0332 18.7579 62.185 21.6329 58.5711 22.6921ZM60.3516 18.2098C60.1227 18.8463 59.8599 19.4359 59.5692 19.9696C58.5668 21.8093 57.2752 22.9094 55.9187 23.102V18.7909C57.4904 18.7594 58.988 18.5555 60.3516 18.2098ZM61.6416 16.9073C62.2724 16.6765 62.8568 16.4117 63.3853 16.1182C65.2086 15.1063 66.2983 13.8028 66.4892 12.4337H62.2177C62.1862 14.02 61.9841 15.5314 61.6416 16.9073ZM61.3581 12.4337C61.3224 14.1648 61.0757 15.79 60.6667 17.2259C59.2442 17.6382 57.6339 17.8874 55.9187 17.9233V16.0509C56.5584 14.3971 57.8637 13.0795 59.5023 12.4337H61.3581ZM62.2177 11.5663H66.4892C66.2983 10.1972 65.2086 8.89368 63.3853 7.88184C62.8568 7.58832 62.2724 7.32348 61.6416 7.09266C61.9841 8.46858 62.1862 9.98004 62.2177 11.5663ZM60.6667 6.77412C61.0757 8.21004 61.3224 9.8352 61.3581 11.5663H59.5023C57.8637 10.9205 56.5584 9.60294 55.9187 7.9491V6.07674C57.6339 6.11256 59.2442 6.3618 60.6667 6.77412ZM61.3563 6.07848C62.2486 6.36546 63.0696 6.71658 63.7997 7.12176C64.7033 7.62336 65.4839 8.21868 66.0831 8.88942C65.0332 5.24207 62.185 2.36714 58.5711 1.30786C59.2357 1.91277 59.8255 2.70035 60.3225 3.61239C60.7237 4.34904 61.0721 5.17775 61.3563 6.07848ZM55.9187 0.897954C57.2752 1.09061 58.5668 2.19065 59.5692 4.03044C59.8599 4.5641 60.1227 5.15368 60.3516 5.79026C58.988 5.4445 57.4904 5.24065 55.9187 5.20912V0.897954Z" fill="url(#paint10_linear_2005_6951)"/>
</g>
<defs>
<linearGradient id="paint0_linear_2005_6951" x1="74.1911" y1="3.00574" x2="74.1911" y2="17.7143" gradientUnits="userSpaceOnUse">
<stop stop-color="#FFDE25"/>
<stop offset="1" stop-color="#E6B71D"/>
</linearGradient>
<linearGradient id="paint1_linear_2005_6951" x1="82.5408" y1="6.87317" x2="82.5408" y2="21.1703" gradientUnits="userSpaceOnUse">
<stop stop-color="#FFDE25"/>
<stop offset="1" stop-color="#E6B71D"/>
</linearGradient>
<linearGradient id="paint2_linear_2005_6951" x1="93.003" y1="6.87317" x2="93.003" y2="18.0229" gradientUnits="userSpaceOnUse">
<stop stop-color="#FFDE25"/>
<stop offset="1" stop-color="#E6B71D"/>
</linearGradient>
<linearGradient id="paint3_linear_2005_6951" x1="103.497" y1="7.16113" x2="103.497" y2="18.0023" gradientUnits="userSpaceOnUse">
<stop stop-color="#FFDE25"/>
<stop offset="1" stop-color="#E6B71D"/>
</linearGradient>
<linearGradient id="paint4_linear_2005_6951" x1="117.611" y1="6.87317" x2="117.611" y2="17.7143" gradientUnits="userSpaceOnUse">
<stop stop-color="#FFDE25"/>
<stop offset="1" stop-color="#E6B71D"/>
</linearGradient>
<linearGradient id="paint5_linear_2005_6951" x1="1.94156" y1="3.00574" x2="1.94156" y2="17.7143" gradientUnits="userSpaceOnUse">
<stop stop-color="#FFDE25"/>
<stop offset="1" stop-color="#E6B71D"/>
</linearGradient>
<linearGradient id="paint6_linear_2005_6951" x1="10.1056" y1="6.87317" x2="10.1056" y2="18.0229" gradientUnits="userSpaceOnUse">
<stop stop-color="#FFDE25"/>
<stop offset="1" stop-color="#E6B71D"/>
</linearGradient>
<linearGradient id="paint7_linear_2005_6951" x1="21.4123" y1="6.87317" x2="21.4123" y2="21.3143" gradientUnits="userSpaceOnUse">
<stop stop-color="#FFDE25"/>
<stop offset="1" stop-color="#E6B71D"/>
</linearGradient>
<linearGradient id="paint8_linear_2005_6951" x1="33.2153" y1="6.87317" x2="33.2153" y2="18.0229" gradientUnits="userSpaceOnUse">
<stop stop-color="#FFDE25"/>
<stop offset="1" stop-color="#E6B71D"/>
</linearGradient>
<linearGradient id="paint9_linear_2005_6951" x1="127.961" y1="4.57141" x2="127.961" y2="6.2857" gradientUnits="userSpaceOnUse">
<stop stop-color="#FFDE25"/>
<stop offset="1" stop-color="#E6B71D"/>
</linearGradient>
<linearGradient id="paint10_linear_2005_6951" x1="55.4891" y1="0" x2="55.4891" y2="24" gradientUnits="userSpaceOnUse">
<stop stop-color="#FFDE25"/>
<stop offset="1" stop-color="#E6B71D"/>
</linearGradient>
<clipPath id="clip0_2005_6951">
<rect width="129.6" height="24" fill="white" transform="translate(0.0655518)"/>
</clipPath>
</defs>
</svg>
